{
    "asset" : {
        "generator" : "Khronos glTF Blender I/O v3.4.50",
        "version" : "2.0"
    },
    "extensionsUsed" : [
        "KHR_materials_emissive_strength"
    ],
    "scene" : 0,
    "scenes" : [
        {
            "name" : "Scene",
            "nodes" : [
                0,
                1,
                2,
                3,
                4,
                5
            ]
        }
    ],
    "nodes" : [
        {
            "mesh" : 0,
            "name" : "Dagger",
            "scale" : [
                0.3005468547344208,
                0.3005468547344208,
                0.3005468547344208
            ],
            "translation" : [
                0.06777298450469971,
                2.599348306655884,
                0.005085598677396774
            ]
        },
        {
            "mesh" : 1,
            "name" : "Metal Red",
            "translation" : [
                6.946913719177246,
                1.9814151525497437,
                0
            ]
        },
        {
            "mesh" : 2,
            "name" : "Rough Dark Metal",
            "translation" : [
                9.763035774230957,
                1.9814151525497437,
                0
            ]
        },
        {
            "mesh" : 3,
            "name" : "Glow Material",
            "translation" : [
                13.029088020324707,
                1.9814151525497437,
                0
            ]
        },
        {
            "mesh" : 4,
            "name" : "Rough Light Metal",
            "translation" : [
                3.9380719661712646,
                1.9814151525497437,
                0
            ]
        },
        {
            "mesh" : 5,
            "name" : "Metal Black",
            "translation" : [
                3.9380719661712646,
                4.885860919952393,
                0.020295143127441406
            ]
        }
    ],
    "materials" : [
        {
            "doubleSided" : true,
            "name" : "Metal Black",
            "pbrMetallicRoughness" : {
                "baseColorTexture" : {
                    "index" : 0
                },
                "roughnessFactor" : 0.2454545497894287
            }
        },
        {
            "doubleSided" : true,
            "name" : "Dull Metal",
            "pbrMetallicRoughness" : {}
        },
        {
            "doubleSided" : true,
            "emissiveFactor" : [
                1,
                1,
                1
            ],
            "extensions" : {
                "KHR_materials_emissive_strength" : {
                    "emissiveStrength" : 52
                }
            },
            "name" : "Neon Emision",
            "pbrMetallicRoughness" : {
                "baseColorFactor" : [
                    0,
                    0,
                    0,
                    1
                ]
            }
        },
        {
            "doubleSided" : true,
            "name" : "Sharp Metal",
            "pbrMetallicRoughness" : {}
        },
        {
            "doubleSided" : true,
            "name" : "Sharp Metal.001",
            "pbrMetallicRoughness" : {
                "metallicFactor" : 0
            }
        }
    ],
    "meshes" : [
        {
            "name" : "Cube.002",
            "primitives" : [
                {
                    "attributes" : {
                        "POSITION" : 0,
                        "TEXCOORD_0" : 1,
                        "NORMAL" : 2
                    },
                    "indices" : 3,
                    "material" : 0
                },
                {
                    "attributes" : {
                        "POSITION" : 4,
                        "TEXCOORD_0" : 5,
                        "NORMAL" : 6
                    },
                    "indices" : 7,
                    "material" : 1
                },
                {
                    "attributes" : {
                        "POSITION" : 8,
                        "TEXCOORD_0" : 9,
                        "NORMAL" : 10
                    },
                    "indices" : 11,
                    "material" : 2
                },
                {
                    "attributes" : {
                        "POSITION" : 12,
                        "TEXCOORD_0" : 13,
                        "NORMAL" : 14
                    },
                    "indices" : 15,
                    "material" : 3
                }
            ]
        },
        {
            "name" : "Sphere",
            "primitives" : [
                {
                    "attributes" : {
                        "POSITION" : 16,
                        "TEXCOORD_0" : 17,
                        "NORMAL" : 18
                    },
                    "indices" : 19,
                    "material" : 3
                }
            ]
        },
        {
            "name" : "Sphere.001",
            "primitives" : [
                {
                    "attributes" : {
                        "POSITION" : 20,
                        "TEXCOORD_0" : 21,
                        "NORMAL" : 22
                    },
                    "indices" : 19,
                    "material" : 1
                }
            ]
        },
        {
            "name" : "Sphere.002",
            "primitives" : [
                {
                    "attributes" : {
                        "POSITION" : 23,
                        "TEXCOORD_0" : 24,
                        "NORMAL" : 25
                    },
                    "indices" : 19,
                    "material" : 2
                }
            ]
        },
        {
            "name" : "Sphere.003",
            "primitives" : [
                {
                    "attributes" : {
                        "POSITION" : 26,
                        "TEXCOORD_0" : 27,
                        "NORMAL" : 28
                    },
                    "indices" : 19,
                    "material" : 4
                }
            ]
        },
        {
            "name" : "Sphere.004",
            "primitives" : [
                {
                    "attributes" : {
                        "POSITION" : 29,
                        "TEXCOORD_0" : 30,
                        "NORMAL" : 31
                    },
                    "indices" : 19,
                    "material" : 0
                }
            ]
        }
    ],
    "textures" : [
        {
            "sampler" : 0,
            "source" : 0
        }
    ],
    "images" : [
        {
            "bufferView" : 4,
            "mimeType" : "image/jpeg",
            "name" : "Baked 1"
        }
    ],
    "accessors" : [
        {
            "bufferView" : 0,
            "componentType" : 5126,
            "count" : 581,
            "max" : [
                1.2403899431228638,
                0.7308632731437683,
                0.40434932708740234
            ],
            "min" : [
                -1.6205551624298096,
                -0.4349510967731476,
                -0.08043970167636871
            ],
            "type" : "VEC3"
        },
        {
            "bufferView" : 1,
            "componentType" : 5126,
            "count" : 581,
            "type" : "VEC2"
        },
        {
            "bufferView" : 2,
            "componentType" : 5126,
            "count" : 581,
            "type" : "VEC3"
        },
        {
            "bufferView" : 3,
            "componentType" : 5123,
            "count" : 975,
            "type" : "SCALAR"
        },
        {
            "bufferView" : 5,
            "componentType" : 5126,
            "count" : 2641,
            "max" : [
                0.7864865064620972,
                7.903413772583008,
                0.4377361536026001
            ],
            "min" : [
                -1.0792237520217896,
                -5.30363130569458,
                -0.11382648348808289
            ],
            "type" : "VEC3"
        },
        {
            "bufferView" : 6,
            "componentType" : 5126,
            "count" : 2641,
            "type" : "VEC2"
        },
        {
            "bufferView" : 7,
            "componentType" : 5126,
            "count" : 2641,
            "type" : "VEC3"
        },
        {
            "bufferView" : 8,
            "componentType" : 5123,
            "count" : 4236,
            "type" : "SCALAR"
        },
        {
            "bufferView" : 9,
            "componentType" : 5126,
            "count" : 763,
            "max" : [
                -0.2084607034921646,
                -0.42852163314819336,
                0.4200320243835449
            ],
            "min" : [
                -0.6795541048049927,
                -5.042681694030762,
                -0.0518527626991272
            ],
            "type" : "VEC3"
        },
        {
            "bufferView" : 10,
            "componentType" : 5126,
            "count" : 763,
            "type" : "VEC2"
        },
        {
            "bufferView" : 11,
            "componentType" : 5126,
            "count" : 763,
            "type" : "VEC3"
        },
        {
            "bufferView" : 12,
            "componentType" : 5123,
            "count" : 3108,
            "type" : "SCALAR"
        },
        {
            "bufferView" : 13,
            "componentType" : 5126,
            "count" : 306,
            "max" : [
                0.8374883532524109,
                8.865219116210938,
                0.38325563073158264
            ],
            "min" : [
                -0.4811263084411621,
                1.092482328414917,
                -0.05934593081474304
            ],
            "type" : "VEC3"
        },
        {
            "bufferView" : 14,
            "componentType" : 5126,
            "count" : 306,
            "type" : "VEC2"
        },
        {
            "bufferView" : 15,
            "componentType" : 5126,
            "count" : 306,
            "type" : "VEC3"
        },
        {
            "bufferView" : 16,
            "componentType" : 5123,
            "count" : 468,
            "type" : "SCALAR"
        },
        {
            "bufferView" : 17,
            "componentType" : 5126,
            "count" : 2200,
            "max" : [
                1.0000005960464478,
                1,
                1.000001072883606
            ],
            "min" : [
                -1.000000238418579,
                -1,
                -1
            ],
            "type" : "VEC3"
        },
        {
            "bufferView" : 18,
            "componentType" : 5126,
            "count" : 2200,
            "type" : "VEC2"
        },
        {
            "bufferView" : 19,
            "componentType" : 5126,
            "count" : 2200,
            "type" : "VEC3"
        },
        {
            "bufferView" : 20,
            "componentType" : 5123,
            "count" : 11904,
            "type" : "SCALAR"
        },
        {
            "bufferView" : 21,
            "componentType" : 5126,
            "count" : 2200,
            "max" : [
                1.0000005960464478,
                1,
                1.000001072883606
            ],
            "min" : [
                -1.000000238418579,
                -1,
                -1
            ],
            "type" : "VEC3"
        },
        {
            "bufferView" : 22,
            "componentType" : 5126,
            "count" : 2200,
            "type" : "VEC2"
        },
        {
            "bufferView" : 23,
            "componentType" : 5126,
            "count" : 2200,
            "type" : "VEC3"
        },
        {
            "bufferView" : 24,
            "componentType" : 5126,
            "count" : 2200,
            "max" : [
                1.0000005960464478,
                1,
                1.000001072883606
            ],
            "min" : [
                -1.000000238418579,
                -1,
                -1
            ],
            "type" : "VEC3"
        },
        {
            "bufferView" : 25,
            "componentType" : 5126,
            "count" : 2200,
            "type" : "VEC2"
        },
        {
            "bufferView" : 26,
            "componentType" : 5126,
            "count" : 2200,
            "type" : "VEC3"
        },
        {
            "bufferView" : 27,
            "componentType" : 5126,
            "count" : 2200,
            "max" : [
                1.0000005960464478,
                1,
                1.000001072883606
            ],
            "min" : [
                -1.000000238418579,
                -1,
                -1
            ],
            "type" : "VEC3"
        },
        {
            "bufferView" : 28,
            "componentType" : 5126,
            "count" : 2200,
            "type" : "VEC2"
        },
        {
            "bufferView" : 29,
            "componentType" : 5126,
            "count" : 2200,
            "type" : "VEC3"
        },
        {
            "bufferView" : 30,
            "componentType" : 5126,
            "count" : 2200,
            "max" : [
                1.0000005960464478,
                1,
                1.000001072883606
            ],
            "min" : [
                -1.000000238418579,
                -1,
                -1
            ],
            "type" : "VEC3"
        },
        {
            "bufferView" : 31,
            "componentType" : 5126,
            "count" : 2200,
            "type" : "VEC2"
        },
        {
            "bufferView" : 32,
            "componentType" : 5126,
            "count" : 2200,
            "type" : "VEC3"
        }
    ],
    "bufferViews" : [
        {
            "buffer" : 0,
            "byteLength" : 6972,
            "byteOffset" : 0,
            "target" : 34962
        },
        {
            "buffer" : 0,
            "byteLength" : 4648,
            "byteOffset" : 6972,
            "target" : 34962
        },
        {
            "buffer" : 0,
            "byteLength" : 6972,
            "byteOffset" : 11620,
            "target" : 34962
        },
        {
            "buffer" : 0,
            "byteLength" : 1950,
            "byteOffset" : 18592,
            "target" : 34963
        },
        {
            "buffer" : 0,
            "byteLength" : 4699,
            "byteOffset" : 20544
        },
        {
            "buffer" : 0,
            "byteLength" : 31692,
            "byteOffset" : 25244,
            "target" : 34962
        },
        {
            "buffer" : 0,
            "byteLength" : 21128,
            "byteOffset" : 56936,
            "target" : 34962
        },
        {
            "buffer" : 0,
            "byteLength" : 31692,
            "byteOffset" : 78064,
            "target" : 34962
        },
        {
            "buffer" : 0,
            "byteLength" : 8472,
            "byteOffset" : 109756,
            "target" : 34963
        },
        {
            "buffer" : 0,
            "byteLength" : 9156,
            "byteOffset" : 118228,
            "target" : 34962
        },
        {
            "buffer" : 0,
            "byteLength" : 6104,
            "byteOffset" : 127384,
            "target" : 34962
        },
        {
            "buffer" : 0,
            "byteLength" : 9156,
            "byteOffset" : 133488,
            "target" : 34962
        },
        {
            "buffer" : 0,
            "byteLength" : 6216,
            "byteOffset" : 142644,
            "target" : 34963
        },
        {
            "buffer" : 0,
            "byteLength" : 3672,
            "byteOffset" : 148860,
            "target" : 34962
        },
        {
            "buffer" : 0,
            "byteLength" : 2448,
            "byteOffset" : 152532,
            "target" : 34962
        },
        {
            "buffer" : 0,
            "byteLength" : 3672,
            "byteOffset" : 154980,
            "target" : 34962
        },
        {
            "buffer" : 0,
            "byteLength" : 936,
            "byteOffset" : 158652,
            "target" : 34963
        },
        {
            "buffer" : 0,
            "byteLength" : 26400,
            "byteOffset" : 159588,
            "target" : 34962
        },
        {
            "buffer" : 0,
            "byteLength" : 17600,
            "byteOffset" : 185988,
            "target" : 34962
        },
        {
            "buffer" : 0,
            "byteLength" : 26400,
            "byteOffset" : 203588,
            "target" : 34962
        },
        {
            "buffer" : 0,
            "byteLength" : 23808,
            "byteOffset" : 229988,
            "target" : 34963
        },
        {
            "buffer" : 0,
            "byteLength" : 26400,
            "byteOffset" : 253796,
            "target" : 34962
        },
        {
            "buffer" : 0,
            "byteLength" : 17600,
            "byteOffset" : 280196,
            "target" : 34962
        },
        {
            "buffer" : 0,
            "byteLength" : 26400,
            "byteOffset" : 297796,
            "target" : 34962
        },
        {
            "buffer" : 0,
            "byteLength" : 26400,
            "byteOffset" : 324196,
            "target" : 34962
        },
        {
            "buffer" : 0,
            "byteLength" : 17600,
            "byteOffset" : 350596,
            "target" : 34962
        },
        {
            "buffer" : 0,
            "byteLength" : 26400,
            "byteOffset" : 368196,
            "target" : 34962
        },
        {
            "buffer" : 0,
            "byteLength" : 26400,
            "byteOffset" : 394596,
            "target" : 34962
        },
        {
            "buffer" : 0,
            "byteLength" : 17600,
            "byteOffset" : 420996,
            "target" : 34962
        },
        {
            "buffer" : 0,
            "byteLength" : 26400,
            "byteOffset" : 438596,
            "target" : 34962
        },
        {
            "buffer" : 0,
            "byteLength" : 26400,
            "byteOffset" : 464996,
            "target" : 34962
        },
        {
            "buffer" : 0,
            "byteLength" : 17600,
            "byteOffset" : 491396,
            "target" : 34962
        },
        {
            "buffer" : 0,
            "byteLength" : 26400,
            "byteOffset" : 508996,
            "target" : 34962
        }
    ],
    "samplers" : [
        {
            "magFilter" : 9729,
            "minFilter" : 9987
        }
    ],
    "buffers" : [
        {
            "byteLength" : 535396,
            "uri" : "data:application/octet-stream;base64,"
        }
    ]
}
